HIERARCHY
ROOT Hips
{
  OFFSET 0 0 0
  CHANNELS 6 Xposition Yposition Zposition Zrotation Yrotation Xrotation
  JOINT LeftThigh
  {
    OFFSET 8.409438 0 -5.917753
    CHANNELS 3 Zrotation Yrotation Xrotation
    JOINT LeftLeg
    {
      OFFSET 0 0 -42.358652
      CHANNELS 3 Zrotation Yrotation Xrotation
      JOINT LeftFoot
      {
        OFFSET 0 0 -39.357303
        CHANNELS 3 Zrotation Yrotation Xrotation
      }
    }
  }
  JOINT RightThigh
  {
    OFFSET -8.409438 0 -5.917753
    CHANNELS 3 Zrotation Yrotation Xrotation
    JOINT RightLeg
    {
      OFFSET 0 0 -42.358652
      CHANNELS 3 Zrotation Yrotation Xrotation
      JOINT RightFoot
      {
        OFFSET 0 0 -39.357303
        CHANNELS 3 Zrotation Yrotation Xrotation
      }
    }
  }
  JOINT SpineLow
  {
    OFFSET 0 0 4.719101
    CHANNELS 3 Zrotation Yrotation Xrotation
    JOINT SpineMid
    {
      OFFSET 0 0 12.899191
      CHANNELS 3 Zrotation Yrotation Xrotation
      JOINT Chest
      {
        OFFSET 0 0 12.899191
        CHANNELS 3 Zrotation Yrotation Xrotation
        JOINT LeftShoulder
        {
          OFFSET 7.550562 1.41573 9.438202
          CHANNELS 3 Zrotation Yrotation Xrotation
          JOINT LeftArm
          {
            OFFSET 9.155056 0 4.247191
            CHANNELS 3 Zrotation Yrotation Xrotation
            JOINT LeftForearm
            {
              OFFSET 0 0 25.771955
              CHANNELS 3 Zrotation Yrotation Xrotation
              JOINT LeftHand
              {
                OFFSET 0 0 25.197169
                CHANNELS 3 Zrotation Yrotation Xrotation
              }
            }
          }
        }
        JOINT RightShoulder
        {
          OFFSET -7.550562 1.41573 9.438202
          CHANNELS 3 Zrotation Yrotation Xrotation
          JOINT RightArm
          {
            OFFSET -9.155056 0 4.247191
            CHANNELS 3 Zrotation Yrotation Xrotation
            JOINT RightForearm
            {
              OFFSET 0 0 -25.771955
              CHANNELS 3 Zrotation Yrotation Xrotation
              JOINT RightHand
              {
                OFFSET 0 0 -25.197169
                CHANNELS 3 Zrotation Yrotation Xrotation
              }
            }
          }
        }
        JOINT Neck
        {
          OFFSET 0 0 15.101124
          CHANNELS 3 Zrotation Yrotation Xrotation
          JOINT Head
          {
            OFFSET 0 0 11.325843
            CHANNELS 3 Zrotation Yrotation Xrotation
            End Site
            {
              OFFSET 0 0 14.157303
            }
          }
        }
      }
    }
  }
}
MOTION
Frames: 16
Frame Time: 0.0
0.0  89.887642  0.0  18.828684  -24.790531  -130.876433  -17.035114  -59.631952  -29.738332  -6.128645  -11.850876  14.661819  13.294098  -0.232258  9.32317  -19.809272  12.248941  6.6991  16.53927  11.113748  30.893452  10.616825  4.518955  2.465256  -0.464955  3.296233  3.057385  -0.855023  9.052  8.341244  -0.855023  9.052  8.341243  -15.208866  22.386978  12.730578  -109.128813  59.683756  -66.935134  -35.116076  -21.338  69.074738  70.712052  14.8852  -7.251703  4.649821  -9.215946  27.849116  128.019211  26.220118  64.373982  -13.689152  3.756863  -98.595485  108.350406  10.885833  -40.962707  10.526635  -3.478136  9.455971  7.948664  -2.447297  7.152277  
0.0  89.887642  0.0  17.399945  -24.300848  -129.39551  7.222379  -53.42004  -50.80537  -11.764568  -7.466836  12.844991  9.355896  -1.031005  10.616825  -20.802627  11.615456  5.307835  18.723739  9.640464  32.099913  9.449574  4.049442  2.729429  -0.660006  3.208425  3.093795  -1.396271  8.837458  8.414219  -1.396271  8.837457  8.41422  -15.076734  21.769499  12.095662  -111.960137  58.277514  -70.129451  -34.136965  -21.621498  70.126863  70.641773  15.610909  -5.965985  4.507513  -9.435444  26.496021  127.672977  25.37497  63.758603  -14.225748  3.434346  -98.680262  106.814467  12.379239  -44.369941  10.481443  -3.57158  8.612425  7.910769  -2.532477  6.520815  
0.0  89.887642  0.0  16.524937  -24.034287  -128.81121  21.937112  -43.812005  -60.378456  -23.396714  -2.231667  12.943386  10.969154  -1.075737  11.808885  -19.461307  9.708219  5.077927  19.855564  8.782111  33.806727  7.446394  4.083611  2.709461  -0.757918  3.229046  3.328238  -1.630188  8.91082  9.045338  -1.630188  8.910819  9.045337  -14.73881  20.757784  11.272447  -114.101154  56.789299  -72.048133  -33.219734  -21.666891  71.156272  70.546367  16.106449  -5.044115  4.805645  -10.219134  24.42197  126.589376  24.8117  63.397358  -13.569635  2.301368  -99.305368  105.1069  13.953173  -48.296404  10.474376  -3.897137  7.046771  7.898974  -2.803528  5.351783  
0.0  89.887642  0.0  15.962088  -22.994443  -128.131228  29.091424  -35.945624  -68.359673  -31.48305  6.786057  17.933875  12.21854  -1.353347  11.959763  -18.38819  7.531017  5.293097  20.204215  8.813009  34.553132  5.05012  4.313861  2.628786  -0.914498  3.277971  3.567437  -2.019721  9.071621  9.681229  -2.019722  9.071621  9.681229  -14.385593  20.249776  10.29957  -114.795793  55.108618  -73.884885  -32.863113  -19.757095  73.459065  70.495108  16.671132  -4.33232  5.435166  -10.753094  22.331792  124.749175  24.501233  63.190115  -10.73047  -0.779871  -100.676  105.575086  14.610481  -51.222899  10.318377  -4.059099  5.332616  7.771698  -2.955587  4.067797  
0.0  89.887642  0.0  15.387013  -21.862018  -126.577175  32.70219  -29.094207  -73.404438  -36.456892  15.068729  22.639394  12.647118  -0.850553  11.858495  -18.724654  5.721499  4.941226  19.062344  10.044544  33.994447  3.48014  4.751928  2.344702  -1.019184  3.241363  3.628807  -2.303548  8.988804  9.835697  -2.303548  8.988804  9.835697  -14.439652  20.245662  9.770412  -115.09211  53.742025  -73.478402  -32.411812  -18.180442  74.249138  70.831162  17.362741  -3.873333  5.716909  -10.654452  20.909598  122.519362  24.594284  62.628286  -6.597321  -3.067073  -102.701633  106.145743  14.03956  -52.425139  9.732314  -4.088937  4.085476  7.323885  -3.00273  3.128963  
0.0  89.887642  0.0  14.812247  -21.311154  -125.830507  34.014597  -27.663423  -77.546233  -36.350987  25.128855  27.633297  13.723886  -0.942363  12.480143  -20.603022  5.472992  4.758084  16.958009  12.04921  33.257085  4.956465  6.180316  2.323207  -0.978859  3.074364  3.521192  -2.231408  8.524488  9.546907  -2.231408  8.524488  9.546906  -14.307514  21.345803  10.654631  -114.393748  52.419233  -72.298141  -31.547398  -16.30451  74.277959  71.379656  18.077878  -3.05396  5.616468  -9.690603  21.827213  120.623608  25.270707  61.797025  -3.954954  -4.680764  -104.064988  105.996723  13.887462  -53.593404  8.859023  -3.943007  4.307409  6.669855  -2.895732  3.287338  
0.0  89.887642  0.0  14.201459  -21.100808  -124.887384  35.751397  -31.824719  -81.79761  -30.058223  35.77137  33.260904  14.078638  -0.688435  12.396883  -22.133746  5.868779  4.237673  13.209995  14.505893  32.257893  8.692559  6.032627  1.593296  -1.084818  2.754782  3.243723  -2.599388  7.658583  8.776557  -2.599388  7.658583  8.776557  -13.206989  23.644409  11.255063  -114.771881  52.03087  -72.045832  -30.794314  -16.176436  75.147528  71.557382  20.1744  -1.787852  6.312788  -7.950273  23.564536  119.49049  26.044236  61.278299  -2.958656  -5.412692  -105.216909  105.224172  13.552441  -54.181799  8.438681  -3.159806  5.193416  6.354817  -2.298874  3.938634  
0.0  89.887642  0.0  13.775446  -21.006638  -124.290067  37.496797  -37.874527  -84.630238  -20.569821  45.676328  39.143374  14.474295  -0.646286  12.108468  -21.913553  6.134796  4.01274  7.957681  16.799862  31.039284  13.439699  5.522932  1.318963  -1.288752  2.678775  2.824205  -3.216064  7.459306  7.603687  -3.216064  7.459306  7.603687  -10.012384  24.936927  13.110357  -117.038429  52.423002  -73.441719  -29.788959  -16.01221  76.16738  72.658711  22.393738  -1.055128  7.962194  -7.571642  26.400486  118.95606  27.138104  60.810168  -3.327172  -5.676154  -105.972016  104.549555  13.267538  -53.825977  8.747239  -3.092074  6.6375  6.59336  -2.224918  5.022427  
0.0  89.887642  0.0  13.424084  -20.659866  -123.741383  37.626963  -43.376866  -86.022048  -8.02081  53.077342  47.874033  15.327361  -0.234599  11.924827  -20.54563  6.229127  3.702703  7.019283  16.090614  31.378361  13.076947  4.801471  1.48652  -1.348386  2.492339  2.82175  -3.400029  6.957237  7.596698  -3.400029  6.957237  7.596698  -9.310894  26.026311  12.442945  -120.652863  52.883744  -76.198107  -28.042964  -16.163485  76.974615  72.926979  23.694866  -1.971274  8.037695  -6.436727  26.705971  118.694563  28.285541  60.063797  -4.217316  -5.696911  -106.3522  104.125237  13.382966  -52.499061  8.302488  -2.472394  6.879985  6.254681  -1.761483  5.193928  
0.0  89.887642  0.0  13.011052  -20.398995  -122.506077  35.724245  -47.158256  -84.66714  5.305147  56.189579  58.189515  15.67402  0.752847  11.37858  -18.900228  5.766589  2.501966  9.174409  13.152648  32.682956  10.313903  4.340437  1.837317  -1.103668  2.467562  2.848658  -2.729723  6.862817  7.69722  -2.729723  6.862817  7.69722  -10.289276  24.892831  12.059258  -125.719465  53.041098  -80.395274  -27.253341  -18.23773  78.181944  71.429674  24.781046  -2.568014  6.066399  -7.10439  25.94142  118.365058  28.962578  59.12778  -5.080435  -5.714826  -106.605419  103.850701  13.359125  -50.96547  7.06712  -2.681845  6.724455  5.32966  -1.934216  5.074252  
0.0  89.887642  0.0  12.440064  -20.320555  -120.975756  32.84102  -49.631336  -81.554471  17.989221  58.109033  68.520227  16.508729  1.180883  10.731011  -17.09743  4.855935  1.07259  11.167946  10.124134  33.699567  7.746381  3.697612  2.075497  -0.840326  2.353286  2.776223  -2.028883  6.51853  7.527993  -2.028883  6.51853  7.527993  -10.889227  23.581816  12.768994  -131.486549  52.363064  -85.195365  -27.553924  -19.601492  78.944745  70.33469  24.896358  -2.65468  3.877626  -7.807716  25.413487  117.593918  29.322906  58.001769  -5.546669  -5.686417  -106.853964  103.236437  12.741249  -49.909631  5.713317  -2.711108  6.763143  4.314833  -1.970604  5.097296  
0.0  89.887642  0.0  11.783603  -20.359948  -119.116527  30.030462  -50.042907  -79.017333  30.313405  58.477343  80.575784  17.156286  1.627959  10.065879  -15.710398  3.692568  -0.702181  11.991741  8.077023  34.733316  6.344253  3.400144  1.866604  -0.710839  2.220169  2.752497  -1.69152  6.140037  7.47735  -1.69152  6.140037  7.47735  -11.165462  21.83205  12.700421  -137.871561  51.098728  -90.902686  -28.300005  -19.542476  79.725805  70.253092  24.53903  -3.005542  2.455823  -8.483908  24.042137  116.292493  29.669102  56.28719  -5.584061  -5.618132  -106.853473  101.871781  11.711192  -49.622312  4.852521  -2.620192  6.345868  3.666447  -1.915153  4.779742  
0.0  89.887642  0.0  11.21225  -20.257716  -117.210586  27.470619  -47.463744  -76.011443  38.264761  57.758871  91.011676  17.227333  2.247898  9.270235  -15.330071  2.846632  -2.649561  11.727071  7.455849  35.514566  5.982896  3.357841  1.566528  -0.749867  2.127044  2.737926  -1.809948  5.8899  7.435067  -1.809948  5.8899  7.435066  -10.756285  19.774032  12.024972  -143.47462  48.878538  -96.397112  -28.710697  -17.548254  80.642743  71.162016  24.650337  -3.595189  2.322386  -9.033887  22.280101  114.783776  30.027241  54.475193  -5.147673  -5.767644  -107.180668  99.958331  10.145656  -49.152166  4.48137  -2.543382  5.712905  3.384613  -1.865964  4.302907  
0.0  89.887642  0.0  10.486319  -20.037376  -115.160611  25.390577  -42.825653  -72.743589  42.457903  56.672759  99.45162  16.909651  2.769399  8.294077  -16.12587  1.946226  -4.469134  10.891481  7.904782  35.544001  6.266856  3.501697  1.511499  -0.890433  1.97611  2.599966  -2.222693  5.489359  7.047673  -2.222693  5.489359  7.047673  -9.924822  18.057269  11.721694  -148.658133  46.568387  -101.687439  -29.33403  -14.555233  81.50197  72.725524  25.078783  -4.179128  2.74368  -9.242751  21.12202  112.777868  30.59404  52.368557  -4.343263  -5.994318  -107.566459  97.773954  8.353555  -48.583352  4.443426  -2.325994  5.415147  3.353042  -1.705395  4.077975  
0.0  89.887642  0.0  9.504337  -19.974961  -113.027951  23.922814  -37.614283  -69.372838  44.458254  55.49276  106.363392  16.343747  3.32145  7.141847  -17.299673  0.71509  -5.802091  9.068179  9.105692  34.987457  7.579403  3.97905  1.449046  -1.033424  1.75494  2.507953  -2.643583  4.897305  6.790136  -2.643583  4.897305  6.790136  -9.299184  16.590435  10.867195  -153.732939  44.896593  -106.580598  -29.925286  -12.02558  81.733593  73.726765  25.170831  -4.635123  3.464469  -9.229537  19.753155  110.687451  31.326525  50.145036  -3.686397  -6.296378  -107.893585  95.508859  6.373548  -47.783982  4.46179  -2.024619  4.873261  3.362397  -1.483095  3.669582  
0.0  89.887642  0.0  8.279733  -19.689911  -111.042532  21.913165  -33.004929  -64.940468  45.544424  54.522668  111.378273  15.911323  3.845029  5.99965  -18.697494  -0.527627  -6.653322  6.878178  10.380158  34.057934  9.320438  4.3519  1.52347  -1.166393  1.513795  2.563582  -3.027417  4.255069  6.941151  -3.027417  4.255069  6.941151  -9.10135  15.264342  9.308307  -157.150144  44.030718  -109.901011  -29.42635  -9.172295  80.86997  74.204779  24.717539  -4.529151  4.178468  -9.171911  17.938145  108.346494  32.449985  47.679211  -3.290304  -6.472282  -108.02456  93.229957  4.350762  -46.779525  4.490492  -1.755564  3.892485  3.378952  -1.288219  2.932225  
